# xmcd CD database file
#
# Track frame offsets:
#	150
#	13685
#	28538
#	43553
#	57263
#	69275
#	82525
#	97573
#	109590
#	123183
#	135708
#	149988
#	164225
#	176963
#	190193
#	203465
#	215635
#
# Disc length: 3043 seconds
#
# Revision: 2
# Processed by: cddbd v1.5PL3 Copyright (c) Steve Scherf et al.
# Submitted via: CDex 1.51
#
DISCID=e80be111
DTITLE=Jimmie Rodgers - America's Blue Yodeler 1930-1931 - Rounder CD
DYEAR=1991
DGENRE=Country
TTITLE0=Blue Yodel No. 8
TTITLE1=Jimmie's Mean Mama Blues
TTITLE2=I'm Lonesome Too
TTITLE3=The Mystery Of Number Five
TTITLE4=The One Rose
TTITLE5=In The Jailhouse Now - No. 2
TTITLE6=For The Sake Of Days Gone By
TTITLE7=Blue Yodel No. 9
TTITLE8=T. B. Blues
TTITLE9=Travelling Blues (Unissued - Take 3)
TTITLE10=Travelling Blues
TTITLE11=Why There's A Tear In My Eye
TTITLE12=Jimmie The Kid
TTITLE13=Jimmie The Kid (Unissued - Take 3)
TTITLE14=The Wonderful Cit
TTITLE15=Let Me Be Your Side Track
TTITLE16=Let Me Be Your Side Track (Unissued - Take 2)
EXTD=YEAR: 1991
EXTT0=
EXTT1=
EXTT2=
EXTT3=
EXTT4=
EXTT5=
EXTT6=
EXTT7=
EXTT8=
EXTT9=
EXTT10=
EXTT11=
EXTT12=
EXTT13=
EXTT14=
EXTT15=
EXTT16=
PLAYORDER=
